<?xml version="1.0" ?><!DOCTYPE svg  PUBLIC '-//W3C//DTD SVG 1.1//EN'  'http://www.w3.org/Graphics/SVG/1.1/DTD/svg11.dtd'><svg height="8.4666mm" style="shape-rendering:geometricPrecision; text-rendering:geometricPrecision; image-rendering:optimizeQuality; fill-rule:evenodd; clip-rule:evenodd" version="1.1" viewBox="0 0 846.66 846.66" width="8.4666mm" xml:space="preserve" xmlns="http://www.w3.org/2000/svg" xmlns:xlink="http://www.w3.org/1999/xlink"><defs><style type="text/css">
   <![CDATA[
    .fil0 {fill:black;fill-rule:nonzero}
   ]]>
  </style></defs><g id="Layer_x0020_1"><path class="fil0" d="M136.03 97.69l365.55 0c69.21,0 125.75,56.54 125.75,125.74l0 137.09c0,69.21 -56.54,125.74 -125.75,125.74l-97.48 0 -183.77 159.42c-13.44,11.63 -34.07,1.74 -34.06,-15.57l-0.06 -143.85 -50.18 0c-69.2,0 -125.74,-56.53 -125.74,-125.74l0 -137.09c0,-69.2 56.54,-125.74 125.74,-125.74zm270.73 486.82c-27.16,0 -27.16,-41.3 0,-41.3l52.55 0c5.74,0 10.94,2.34 14.68,6.12l154.3 133.85 0 -119.32c0,-11.41 9.25,-20.65 20.65,-20.65l61.69 0c46.4,0 84.44,-38.04 84.44,-84.44l0 -137.09c0,-27.16 41.3,-27.16 41.3,0l0 137.09c0,69.2 -56.54,125.74 -125.74,125.74l-41.04 0 -0.06 143.85c0.01,17.31 -20.62,27.2 -34.06,15.57l-183.77 -159.42 -44.94 0zm94.82 -445.52l-365.55 0c-46.4,0 -84.44,38.05 -84.44,84.44l0 137.09c0,46.4 38.04,84.44 84.44,84.44l70.83 0c11.4,0 20.65,9.25 20.65,20.65l0 119.33 154.3 -133.85c3.74,-3.78 8.94,-6.13 14.68,-6.13l105.09 0c46.41,0 84.44,-38.04 84.44,-84.44l0 -137.09c0,-46.39 -38.04,-84.44 -84.44,-84.44z"/></g></svg>