<svg xmlns="http://www.w3.org/2000/svg" viewBox="0 0 1200 430"><defs><style>.cls-1{fill:#ff7e36;}.cls-2{fill:#00b493;}</style></defs><g id="Layer_2" data-name="Layer 2"><path class="cls-1" d="M168.33,107.28A114.89,114.89,0,0,0,77.69,292.92c1.19,1.47,2.36,3,3.59,4.4,1.82,2.1,3.64,4.2,5.6,6.16l.17.18a185.9,185.9,0,0,0,81.28,50.65,185.92,185.92,0,0,0,81.27-50.65l.17-.18c2-2,3.79-4.06,5.6-6.16,1.23-1.44,2.41-2.93,3.6-4.4a114.9,114.9,0,0,0-90.64-185.64Zm0,159a44,44,0,1,1,44-44A44,44,0,0,1,168.33,266.27Z"/><path class="cls-2" d="M205.77,104.85a16.89,16.89,0,1,0-10.89-31.72,27,27,0,0,0-53.11,0,16.72,16.72,0,0,0-7.27-1.7,16.91,16.91,0,0,0-3.62,33.42,113.41,113.41,0,0,1,74.89,0Z"/><path class="cls-1" d="M365.44,224h70.38c8.74,0,15.64-5.29,15.64-16.09s-6.9-16.11-15.64-16.11H374.64c-3.22,0-5.06-1.84-5.06-4.83V159.38c0-3,1.84-4.83,5.06-4.83h61.18c8.74,0,15.64-5.29,15.64-16.1s-6.9-16.09-15.64-16.09H365.44c-23.92,0-35.19,10.57-35.19,30.58v40.48C330.25,213.42,341.52,224,365.44,224Z"/><path class="cls-1" d="M453.53,236.88H384.3c-31.28,0-51.75,17.25-51.75,42.32,0,24.61,20.47,41.86,51.75,41.86h69.23c31.28,0,52-17.25,52-41.86C505.51,254.13,484.81,236.88,453.53,236.88Zm0,51.75H384.3c-7.59,0-11.73-4.14-11.73-9.43,0-5.52,4.14-9.89,11.73-9.89h69.23c7.59,0,12,4.37,12,9.89C465.49,284.49,461.12,288.63,453.53,288.63Z"/><path class="cls-1" d="M512.18,155.23h-11V134.08c0-9.2-8.05-16.1-19.55-16.1s-19.78,6.9-19.78,16.1V216c0,9.19,8.28,16.09,19.78,16.09s19.55-6.9,19.55-16.09V193.64h11c9,0,16.1-7.81,16.1-19.09C528.28,163.75,521.14,155.23,512.18,155.23Z"/><path class="cls-1" d="M708.72,241.94H548c-9.42,0-17-6.21-17-17.48,0-10.58,7.6-17.25,17-17.25H708.72c9.43,0,17,6.67,17,17.25C725.74,235.73,718.15,241.94,708.72,241.94ZM675.6,185.36V164.44c0-3.68-2.07-5.75-5.28-5.75H558.76c-9.66,0-17.94-6.21-17.94-17.94,0-11.28,8.28-18.4,17.94-18.4H678.82c23.92,0,36.11,12.42,36.11,34.26v28.75c0,9.2-8,16.1-19.55,16.1S675.6,194.56,675.6,185.36Zm-94.3,79.35v13.8c0,2.76,2.07,4.6,5.3,4.6H701.36c9.66,0,17.94,6.44,17.94,17.94,0,11.27-8.28,17.94-17.94,17.94H578.31C554.63,319,542,308.87,542,287.48V264.71c0-9.2,8.06-16.1,19.55-16.1S581.3,255.51,581.3,264.71Z"/><path class="cls-1" d="M745.81,282.65V149.94c0-18.16,9.2-27.59,28.06-27.59h51.29c18.86,0,28.05,9.43,28.05,27.59V282.65c0,18.17-9.19,27.6-28.05,27.6H773.87C755,310.25,745.81,300.82,745.81,282.65ZM816.19,270V162.59c0-2.52-1.38-4.14-3.68-4.14H786.75c-2.3,0-3.68,1.62-3.68,4.14V270c0,2.53,1.38,4.14,3.68,4.14h25.76C814.81,274.14,816.19,272.53,816.19,270Zm61.18,34V135.23c0-9.66,8.28-17.25,19.78-17.25s19.55,7.59,19.55,17.25v55.19h11c9,0,16.1,8.51,16.1,19.33,0,11.49-7.14,19.54-16.1,19.54h-11V304c0,9.66-8.06,17.25-19.55,17.25S877.37,313.7,877.37,304Z"/><path class="cls-1" d="M1044.59,164h8.05V133.62c0-8.74,7.13-14.72,17.94-14.72s17.48,6,17.48,14.72v90.84c0,8.74-6.67,14.72-17.48,14.72s-17.94-6-17.94-14.72V197.78h-8.05a12.6,12.6,0,0,1-10.81-6c-10.81,23.92-29.9,43.24-56.35,55-8.51,3.68-17.7,1.38-22.53-6.67s-1.62-18.4,5.74-21.62c12-5.29,21.85-12.41,29.44-21.39H970.77c-7.36,0-13.81-4.37-13.81-14,0-9,6.45-14,13.81-14h33.8a77.52,77.52,0,0,0,2.3-11c.46-3-1.15-5.07-3.91-5.07H971.91c-8.74,0-14.95-5.06-14.95-15.17,0-9.66,6.21-15.41,14.95-15.41h37.72c25.07,0,36.57,12,32.89,38.87-.23.91-.23,2.06-.46,3A9.05,9.05,0,0,1,1044.59,164ZM1115,317.61c-23.92-5.06-52.44-18.17-71.07-33.12a129.32,129.32,0,0,1-64.39,34.27c-8.29,1.61-18-2.3-20.93-12.42-2.77-9.66,2.06-18.4,10.8-20.7,26.45-6.9,48.53-22.31,59.57-42.78,3.45-6.21,12.65-10.35,23.23-7.13,11,3.45,15.41,13.8,12.19,21.16l-.23.46c15.41,12.65,38.18,22.54,60.49,27.37,8.51,1.84,13.57,10.58,10.81,20.47C1132.68,315.31,1123.48,319.45,1115,317.61Zm-18.17-86.93v-98c0-8.73,7.36-14.71,18.4-14.71s18.17,6,18.17,14.71v98c0,8.73-7.13,14.71-18.17,14.71S1096.8,239.41,1096.8,230.68Z"/></g></svg>